<svg aria-hidden="true" style="position: absolute; width: 0; height: 0; overflow: hidden;" version="1.1" xmlns="http://www.w3.org/2000/svg" xmlns:xlink="http://www.w3.org/1999/xlink">
<defs>
<symbol id="icon-facebook" viewBox="0 0 32 32">
<path d="M21.33 5.312h2.922v-5.088c-1.232-0.143-2.66-0.224-4.107-0.224-0.052 0-0.104 0-0.157 0l0.008-0c-4.211 0-7.098 2.65-7.098 7.52v4.48h-4.648v5.688h4.648v14.312h5.699v-14.31h4.459l0.709-5.688h-5.168v-3.922c0-1.643 0.443-2.768 2.733-2.768z"></path>
</symbol>
<symbol id="icon-instagram" viewBox="0 0 32 32">
<path d="M31.968 9.408c-0.074-1.701-0.349-2.869-0.742-3.882-0.424-1.111-1.054-2.059-1.85-2.837l-0.001-0.001c-0.78-0.792-1.724-1.419-2.778-1.827l-0.054-0.018c-1.019-0.394-2.181-0.667-3.882-0.742-1.712-0.082-2.256-0.101-6.602-0.101-4.344 0-4.888 0.019-6.595 0.094-1.699 0.074-2.869 0.349-3.88 0.742-1.112 0.424-2.060 1.054-2.839 1.85l-0.001 0.001c-0.791 0.78-1.418 1.724-1.825 2.778l-0.018 0.054c-0.395 1.019-0.669 2.181-0.744 3.882-0.082 1.712-0.101 2.256-0.101 6.602 0 4.344 0.019 4.888 0.094 6.595 0.075 1.701 0.35 2.869 0.744 3.882 0.426 1.11 1.055 2.057 1.849 2.837l0.001 0.001c0.8 0.813 1.77 1.443 2.832 1.843 1.019 0.395 2.182 0.67 3.882 0.744 1.707 0.075 2.251 0.094 6.595 0.094 4.346 0 4.89-0.019 6.595-0.094 1.701-0.074 2.869-0.349 3.882-0.742 2.157-0.85 3.833-2.526 4.664-4.628l0.019-0.055c0.394-1.019 0.669-2.182 0.744-3.882 0.075-1.707 0.093-2.251 0.093-6.595s-0.006-4.888-0.080-6.595zM29.088 22.474c-0.070 1.563-0.333 2.406-0.55 2.97-0.552 1.399-1.64 2.486-3.004 3.024l-0.036 0.012c-0.56 0.219-1.411 0.482-2.968 0.55-1.688 0.075-2.194 0.094-6.464 0.094-4.269 0-4.782-0.019-6.464-0.094-1.563-0.069-2.406-0.331-2.97-0.55-0.721-0.269-1.334-0.676-1.836-1.192l-0.001-0.001c-0.517-0.503-0.924-1.117-1.184-1.803l-0.011-0.034c-0.218-0.563-0.48-1.413-0.549-2.97-0.075-1.688-0.094-2.195-0.094-6.464 0-4.27 0.019-4.784 0.094-6.464 0.069-1.563 0.331-2.406 0.549-2.97 0.269-0.722 0.678-1.337 1.198-1.837l0.002-0.002c0.504-0.517 1.119-0.923 1.806-1.182l0.034-0.011c0.56-0.219 1.411-0.48 2.968-0.55 1.688-0.074 2.195-0.093 6.464-0.093 4.275 0 4.782 0.019 6.464 0.093 1.563 0.069 2.406 0.331 2.97 0.55 0.693 0.256 1.325 0.662 1.837 1.194 0.531 0.52 0.938 1.144 1.195 1.84 0.218 0.56 0.48 1.411 0.549 2.968 0.075 1.688 0.094 2.194 0.094 6.464 0 4.269-0.019 4.768-0.094 6.458z"></path>
<path d="M16.059 7.782c-4.539 0.002-8.218 3.682-8.219 8.221v0c0 0 0 0.001 0 0.002 0 4.541 3.681 8.222 8.222 8.222s8.222-3.681 8.222-8.222c0-4.541-3.681-8.222-8.222-8.222-0.001 0-0.001 0-0.002 0h0zM16.059 21.334c-2.945-0-5.332-2.388-5.332-5.333s2.388-5.333 5.333-5.333c0 0 0.001 0 0.001 0h-0c2.946 0 5.334 2.388 5.334 5.334s-2.388 5.334-5.334 5.334v0zM26.525 7.458c0 1.060-0.86 1.92-1.92 1.92s-1.92-0.86-1.92-1.92v0c0-1.060 0.86-1.92 1.92-1.92s1.92 0.86 1.92 1.92v0z"></path>
</symbol>
<symbol id="icon-linkedin" viewBox="0 0 32 32">
<path d="M31.992 32h0.008v-11.738c0-5.741-1.235-10.163-7.947-10.163-3.227 0-5.392 1.77-6.277 3.45h-0.093v-2.914h-6.365v21.363h6.627v-10.578c0-2.786 0.528-5.48 3.978-5.48 3.398 0 3.45 3.179 3.45 5.658v10.402h6.619zM0.528 10.635h6.635v21.365h-6.635v-21.365zM3.843 0c-2.123 0-3.843 1.721-3.843 3.843v0c0 2.12 1.722 3.878 3.843 3.878 2.12 0 3.842-1.757 3.842-3.878s-1.72-3.841-3.841-3.843h-0z"></path>
</symbol>
<symbol id="icon-twitter" viewBox="0 0 32 32">
<path d="M32 6.078c-1.1 0.493-2.376 0.857-3.713 1.028l-0.068 0.007c1.36-0.817 2.382-2.078 2.873-3.579l0.013-0.046c-1.197 0.722-2.591 1.273-4.076 1.573l-0.084 0.014c-1.2-1.279-2.9-2.076-4.787-2.076-3.622 0-6.558 2.936-6.558 6.558 0 0.001 0 0.003 0 0.004v-0c0 0.52 0.043 1.021 0.152 1.496-5.454-0.266-10.28-2.88-13.522-6.861-0.564 0.949-0.899 2.092-0.902 3.313v0.001c0 2.272 1.171 4.286 2.914 5.451-1.091-0.030-2.107-0.325-2.994-0.823l0.033 0.017v0.072c0.003 3.165 2.236 5.807 5.213 6.44l0.043 0.008c-0.499 0.136-1.071 0.215-1.662 0.215-0.020 0-0.041-0-0.061-0l0.003 0c-0.419 0-0.843-0.024-1.242-0.112 0.85 2.598 3.261 4.509 6.13 4.57-2.215 1.746-5.045 2.8-8.122 2.8-0.004 0-0.008 0-0.013 0h0.001c-0.018 0-0.040 0-0.062 0-0.531 0-1.055-0.034-1.569-0.099l0.061 0.006c2.826 1.846 6.287 2.944 10.004 2.944 0.021 0 0.042-0 0.063-0h-0.003c12.072 0 18.672-10 18.672-18.669 0-0.288-0.010-0.57-0.024-0.848 1.299-0.936 2.39-2.064 3.258-3.355l0.030-0.047z"></path>
</symbol>
<symbol id="icon-user" viewBox="0 0 32 32">
<path d="M18 22.082v-1.649c2.203-1.241 4-4.337 4-7.432 0-4.971 0-9-6-9s-6 4.029-6 9c0 3.096 1.797 6.191 4 7.432v1.649c-6.784 0.555-12 3.888-12 7.918h28c0-4.030-5.216-7.364-12-7.918z"></path>
</symbol>
<symbol id="icon-email" viewBox="0 0 24 32">
<path d="M20 8h-16c-1.1 0-1.989 0.9-1.989 2l-0.011 12c0 1.1 0.9 2 2 2h16c1.1 0 2-0.9 2-2v-12c0-1.1-0.9-2-2-2zM19.6 12.251l-7.069 4.419c-0.151 0.094-0.334 0.15-0.531 0.15s-0.38-0.056-0.535-0.153l0.004 0.002-7.069-4.419c-0.252-0.15-0.418-0.422-0.418-0.731 0-0.469 0.38-0.849 0.849-0.849 0.174 0 0.337 0.053 0.471 0.143l6.697 4.187 6.7-4.191c0.132-0.088 0.294-0.141 0.468-0.141 0.469 0 0.849 0.38 0.849 0.849 0 0.31-0.166 0.581-0.414 0.729l-0.004 0.002z"></path>
</symbol>
<symbol id="icon-mark" viewBox="0 0 40 32">
<path d="M33.84 1.96c0.639-0.554 1.478-0.892 2.396-0.892 0.015 0 0.031 0 0.046 0l-0.002-0c0.001 0 0.002 0 0.003 0 0.932 0 1.783 0.349 2.429 0.923l-0.004-0.003c0.618 0.55 1.016 1.338 1.048 2.218l0 0.006c0 0.020 0.001 0.043 0.001 0.067 0 0.861-0.352 1.64-0.92 2.201l-0 0-18.62 21.496c-0.317 0.314-0.694 0.568-1.113 0.743l-0.023 0.009c-0.419 0.176-0.907 0.279-1.418 0.279-0.955 0-1.827-0.358-2.489-0.946l0.004 0.003-12.348-11.4c-0.335-0.287-0.608-0.635-0.804-1.029l-0.009-0.019c-0.194-0.388-0.308-0.845-0.308-1.329 0-0.903 0.396-1.714 1.024-2.268l0.003-0.003c0.328-0.301 0.716-0.543 1.144-0.704l0.024-0.008c0.39-0.15 0.841-0.236 1.312-0.236 0.514 0 1.003 0.103 1.449 0.289l-0.025-0.009c0.441 0.183 0.819 0.436 1.136 0.748l-0-0 9.772 9.016 16.208-19.060c0.029-0.033 0.059-0.063 0.091-0.091l0.001-0.001h-0.008z"></path>
</symbol>
<symbol id="icon-phone" viewBox="0 0 24 32">
<path d="M19.635 18.487l-2.451-0.28c-0.067-0.008-0.145-0.013-0.223-0.013-0.531 0-1.012 0.215-1.36 0.564l-1.775 1.775c-2.752-1.42-4.94-3.607-6.322-6.278l-0.038-0.081 1.787-1.785c0.347-0.347 0.562-0.827 0.562-1.358 0-0.079-0.005-0.156-0.014-0.233l0.001 0.009-0.28-2.432c-0.115-0.966-0.93-1.708-1.918-1.708-0.001 0-0.002 0-0.002 0h-1.669c-1.091 0-1.997 0.907-1.929 1.997 0.511 8.24 7.101 14.821 15.332 15.333 1.091 0.067 1.997-0.84 1.997-1.931v-1.669c0-0.003 0-0.007 0-0.011 0-0.981-0.739-1.789-1.69-1.899l-0.009-0.001z"></path>
</symbol>
<symbol id="icon-close" viewBox="0 0 32 32">
<path d="M32 3.224l-3.224-3.224-12.776 12.776-12.776-12.776-3.224 3.224 12.776 12.776-12.776 12.776 3.224 3.224 12.776-12.776 12.776 12.776 3.224-3.224-12.776-12.776 12.776-12.776z"></path>
</symbol>
<symbol id="icon-hamburger" viewBox="0 0 47 32">
<path stroke-linejoin="round" stroke-linecap="round" stroke-miterlimit="4" stroke-width="4.3636" d="M1.961 29.153h42.964M1.961 15.615h42.964M1.961 2.077h42.964"></path>
</symbol>
<symbol id="icon-Logo" viewBox="0 0 39 32">
<path d="M22.215 9.64l-0.73-0.571c-0.094-0.079-0.217-0.127-0.351-0.127-0.173 0-0.328 0.080-0.428 0.206l-0.001 0.001-10.097 11.897 0.156 0.177 2.501-2.366c-0.084-0.036-0.152-0.098-0.193-0.177l-0.001-0.002c-0.029-0.054-0.046-0.118-0.046-0.186 0-0.123 0.055-0.233 0.142-0.307l0.001-0c0.065-0.054 0.149-0.087 0.241-0.087 0.002 0 0.005 0 0.007 0h-0c0.081 0 0.16 0.027 0.225 0.076s0.112 0.117 0.136 0.196l0.001 0.003 3.297-3.137c0.048-0.040 0.11-0.064 0.178-0.064s0.13 0.024 0.178 0.064l-0-0 0.167 0.126c0.045 0.033 0.101 0.054 0.162 0.054 0.085 0 0.16-0.038 0.21-0.099l0-0 4.311-4.96c0.079-0.085 0.128-0.199 0.128-0.325 0-0.017-0.001-0.033-0.003-0.049l0 0.002c-0.014-0.14-0.086-0.262-0.191-0.341l-0.001-0.001z"></path>
<path d="M26.959 12.989c-2.081 1.537-4.517 2.743-7.15 3.477l-0.157 0.037c-2.34 0.638-5.060 1.072-7.858 1.208l-0.089 0.003c0.054 0.406 0.151 0.805 0.29 1.189 1.515 1.406 12.92-0.994 15.148-3.771 0.473-0.577-0.184-2.143-0.184-2.143zM13.415 18.857c-0.079-0-0.152-0.025-0.211-0.067l0.001 0.001c-0.062-0.043-0.11-0.102-0.139-0.172l-0.001-0.003c-0.018-0.044-0.028-0.094-0.028-0.147 0-0.107 0.042-0.204 0.111-0.276l-0 0c0.068-0.070 0.162-0.114 0.267-0.114 0.053 0 0.103 0.011 0.148 0.031l-0.002-0.001c0.071 0.031 0.128 0.080 0.169 0.141l0.001 0.001c0.040 0.061 0.064 0.135 0.064 0.215v0c0 0.002 0 0.004 0 0.006 0 0.105-0.042 0.201-0.109 0.271l0-0c-0.068 0.069-0.162 0.112-0.266 0.112-0.001 0-0.002 0-0.004-0h0zM2.639 12.166l0.089-0.394 1.448 0.337c0.119 0.226 0.193 0.475 0.217 0.731 0.027 0.271 0.010 0.546-0.050 0.811-0.076 0.384-0.245 0.721-0.481 0.997l0.002-0.003c-0.224 0.26-0.514 0.458-0.844 0.568l-0.013 0.004c-0.179 0.059-0.385 0.093-0.599 0.093-0.161 0-0.317-0.019-0.467-0.055l0.014 0.003c-0.365-0.083-0.681-0.26-0.931-0.503l0 0c-0.25-0.238-0.434-0.542-0.526-0.884l-0.003-0.013c-0.048-0.171-0.075-0.368-0.075-0.571s0.027-0.4 0.079-0.587l-0.004 0.016c0.059-0.28 0.167-0.547 0.317-0.789 0.142-0.22 0.333-0.402 0.557-0.531l0.2 0.314c-0.194 0.124-0.356 0.282-0.48 0.467l-0.004 0.006c-0.121 0.181-0.209 0.395-0.25 0.625l-0.001 0.010c-0.069 0.295-0.063 0.605 0.017 0.897 0.074 0.278 0.223 0.529 0.429 0.726 0.211 0.21 0.475 0.354 0.763 0.417 0.128 0.038 0.274 0.060 0.426 0.060s0.298-0.022 0.437-0.063l-0.011 0.003c0.277-0.096 0.511-0.255 0.695-0.461l0.001-0.002c0.195-0.23 0.329-0.507 0.39-0.806 0.091-0.362 0.069-0.744-0.066-1.091l-1.275-0.331zM5.792 8.571l-1.298 1.777 0.557 1.023-0.256 0.354-2.061-3.857 0.24-0.337 4.193 0.926-0.262 0.354-1.114-0.24zM5.424 8.48l-2.227-0.514 1.114 2.051 1.113-1.537zM5.424 4.886l0.334-0.257 2.122 2.914 1.749-1.343 0.211 0.291-2.077 1.594-2.339-3.2zM8.933 2.503l0.373-0.171 1.47 3.303 1.988-0.926 0.145 0.331-2.361 1.103-1.615-3.64zM16.273 3.817l0.083 0.36-2.685 0.646-0.891-3.897 2.606-0.623 0.078 0.354-2.228 0.531 0.318 1.383 1.96-0.474 0.084 0.354-1.966 0.469 0.334 1.446 2.306-0.549zM20.098 3.96l-0.93-1.257c-0.104 0.006-0.208 0.006-0.312 0l-1.047 0.034 0.039 1.269h-0.411l-0.129-4 1.481-0.006c0.048-0.005 0.104-0.008 0.161-0.008 0.383 0 0.738 0.125 1.024 0.337l-0.005-0.003c0.145 0.119 0.261 0.271 0.34 0.443s0.119 0.36 0.117 0.551c0.016 0.282-0.056 0.563-0.206 0.8-0.161 0.228-0.387 0.398-0.646 0.486l0.974 1.337-0.451 0.017zM19.709 2.080c0.1-0.094 0.177-0.21 0.227-0.341s0.069-0.269 0.057-0.408c0-0.006 0-0.013 0-0.020 0-0.139-0.030-0.272-0.085-0.391l0.002 0.006c-0.059-0.13-0.143-0.239-0.245-0.326l-0.001-0.001c-0.212-0.15-0.476-0.239-0.76-0.239-0.040 0-0.080 0.002-0.119 0.005l0.005-0-1.058 0.040 0.067 2 1.035-0.034c0.014 0.001 0.031 0.001 0.048 0.001 0.314 0 0.603-0.11 0.829-0.294l-0.002 0.002zM23.045 2.897l-0.201 1.366-0.407-0.063 0.206-1.343-1.153-2.857 0.434 0.069 0.986 2.434 1.67-2.017 0.39 0.086-1.926 2.326zM28.552 2.657l0.485 0.646-0.211 0.171-0.485-0.663-0.306 0.749-0.234-0.103 0.312-0.749-0.802 0.109v-0.274l0.791-0.091-0.49-0.646 0.217-0.171 0.429 0.651 0.301-0.754 0.24 0.103-0.285 0.766 0.802-0.114v0.28l-0.763 0.091zM30.411 7.263c-0.126-0.197-0.211-0.432-0.238-0.684l-0.001-0.007 0.329-0.149c0.025 0.226 0.097 0.445 0.211 0.64 0.125 0.219 0.287 0.413 0.479 0.571 0.199 0.195 0.451 0.321 0.724 0.36 0.098 0.009 0.198-0.006 0.289-0.045 0.091-0.038 0.172-0.099 0.235-0.178 0.081-0.091 0.13-0.211 0.13-0.343 0-0.016-0.001-0.032-0.002-0.047l0 0.002c-0.020-0.148-0.067-0.281-0.136-0.399l0.003 0.005c-0.119-0.198-0.231-0.364-0.351-0.524l0.011 0.015c-0.137-0.181-0.269-0.387-0.388-0.602l-0.014-0.027c-0.087-0.155-0.14-0.339-0.145-0.536l-0-0.001c0-0.211 0.077-0.416 0.217-0.571 0.121-0.151 0.282-0.263 0.462-0.326 0.093-0.029 0.199-0.045 0.309-0.045s0.217 0.016 0.317 0.047l-0.008-0.002c0.26 0.087 0.501 0.227 0.707 0.411 0.171 0.146 0.323 0.315 0.451 0.503 0.118 0.174 0.207 0.367 0.262 0.571l-0.318 0.171c-0.060-0.204-0.143-0.383-0.249-0.545l0.005 0.008c-0.109-0.15-0.232-0.279-0.369-0.391l-0.004-0.003c-0.188-0.187-0.436-0.314-0.713-0.348l-0.006-0.001c-0.015-0.001-0.032-0.002-0.050-0.002-0.087 0-0.17 0.019-0.244 0.053l0.004-0.002c-0.091 0.041-0.171 0.105-0.233 0.185-0.081 0.088-0.131 0.206-0.131 0.335 0 0.019 0.001 0.037 0.003 0.056l-0-0.002c0.013 0.144 0.059 0.283 0.134 0.406 0.078 0.131 0.189 0.303 0.339 0.509 0.149 0.194 0.283 0.401 0.401 0.617 0.093 0.163 0.145 0.349 0.15 0.537 0.001 0.211-0.077 0.416-0.217 0.571-0.119 0.149-0.278 0.262-0.46 0.324l-0.007 0.002c-0.202 0.063-0.417 0.063-0.618 0-0.276-0.093-0.513-0.234-0.715-0.413l0.002 0.002c-0.222-0.199-0.408-0.434-0.55-0.695l-0.007-0.014zM36.015 8.097l-0.785-1.143 0.289-0.211 1.81 2.651-0.29 0.211-0.785-1.143-2.907 2.086-0.234-0.349 2.902-2.103zM34.767 12.794c0.104-0.355 0.297-0.657 0.555-0.89l0.002-0.002c0.248-0.229 0.557-0.396 0.901-0.472l0.013-0.002c0.136-0.033 0.291-0.052 0.451-0.052 0.213 0 0.418 0.034 0.61 0.096l-0.014-0.004c0.327 0.111 0.621 0.309 0.851 0.571 0.233 0.274 0.4 0.61 0.472 0.981l0.002 0.014c0.044 0.165 0.069 0.356 0.069 0.551s-0.025 0.386-0.073 0.567l0.003-0.016c-0.107 0.354-0.3 0.656-0.556 0.89l-0.001 0.001c-0.255 0.235-0.572 0.407-0.923 0.489l-0.014 0.003c-0.349 0.078-0.71 0.063-1.051-0.046-0.342-0.113-0.63-0.31-0.849-0.569l-0.002-0.003c-0.232-0.272-0.398-0.607-0.472-0.975l-0.002-0.014c-0.036-0.152-0.057-0.325-0.057-0.504 0-0.219 0.031-0.431 0.090-0.632l-0.004 0.016zM35.497 14.611c0.186 0.217 0.427 0.377 0.696 0.463 0.278 0.083 0.571 0.093 0.853 0.029 0.296-0.069 0.554-0.207 0.764-0.396l-0.002 0.001c0.206-0.194 0.357-0.44 0.44-0.714 0.078-0.289 0.085-0.593 0.022-0.886-0.067-0.306-0.201-0.574-0.386-0.797l0.002 0.003c-0.189-0.212-0.432-0.373-0.707-0.46l-0.011-0.003c-0.129-0.036-0.276-0.057-0.429-0.057s-0.3 0.021-0.44 0.060l0.011-0.003c-0.297 0.060-0.555 0.2-0.758 0.395l0.001-0.001c-0.203 0.192-0.356 0.435-0.437 0.709l-0.003 0.011c-0.036 0.133-0.057 0.285-0.057 0.443s0.021 0.31 0.059 0.455l-0.003-0.012c0.061 0.283 0.193 0.546 0.384 0.76zM34.343 19.429l1.442-0.571c0-0.103 0.034-0.206 0.062-0.314l0.273-1.034-1.181-0.314 0.106-0.406 3.765 1.034-0.378 1.446c-0.088 0.432-0.32 0.8-0.642 1.060l-0.003 0.003c-0.19 0.138-0.428 0.221-0.685 0.221-0.133 0-0.262-0.022-0.381-0.063l0.008 0.002c-0.279-0.064-0.514-0.218-0.681-0.428l-0.002-0.003c-0.167-0.211-0.269-0.481-0.27-0.775v-0l-1.537 0.571 0.106-0.429zM36.209 19.589c0.065 0.121 0.154 0.229 0.26 0.314 0.167 0.137 0.382 0.219 0.617 0.219 0.193 0 0.373-0.056 0.524-0.152l-0.004 0.002c0.246-0.202 0.414-0.488 0.474-0.806l0.267-1.029-1.887-0.52-0.267 1.029c-0.103 0.306-0.097 0.64 0.017 0.943zM32.344 23.109l-0.283-0.223 1.67-2.257 3.107 2.417-1.615 2.189-0.284-0.223 1.365-1.846-1.114-0.863-1.219 1.651-0.278-0.217 1.247-1.651-1.153-0.897-1.443 1.92zM31.041 27.663l-0.796 0.046v-0.274l0.796-0.006-0.429-0.68 0.217-0.143 0.423 0.686 0.346-0.766 0.239 0.131-0.379 0.72 0.797-0.046v0.28h-0.807l0.429 0.68-0.217 0.143-0.423-0.686-0.368 0.743-0.234-0.137 0.407-0.691zM23.802 27.206l0.674 0.383c0.113-0.223 0.271-0.418 0.463-0.574 0.183-0.149 0.401-0.263 0.639-0.326l0.012-0.003c0.157-0.052 0.337-0.082 0.524-0.082 0.057 0 0.113 0.003 0.168 0.008l-0.007-0.001c0.2 0.016 0.393 0.087 0.557 0.206 0.149 0.114 0.257 0.274 0.311 0.457 0.067 0.226 0.055 0.469-0.033 0.686-0.147 0.307-0.333 0.569-0.557 0.794l0-0c0.184 0.101 0.354 0.226 0.507 0.371 0.105 0.111 0.183 0.246 0.229 0.394 0.014 0.056 0.022 0.12 0.022 0.186 0 0.183-0.063 0.352-0.169 0.485l0.001-0.002c-0.149 0.22-0.37 0.377-0.623 0.44-0.223 0.087-0.469 0.087-0.691 0-0.102-0.046-0.188-0.112-0.255-0.193l-0.001-0.001c-0.067-0.081-0.117-0.179-0.144-0.287l-0.001-0.005c-0.023-0.070-0.036-0.151-0.036-0.235 0-0.122 0.027-0.238 0.077-0.341l-0.002 0.005c0.128-0.26 0.295-0.497 0.495-0.703l-1.342-0.766c-0.051 0.269-0.062 0.545-0.033 0.817h-0.34c-0.004-0.057-0.006-0.124-0.006-0.191 0-0.287 0.043-0.563 0.123-0.824l-0.005 0.020-0.702-0.4 0.145-0.32zM24.771 27.777l1.475 0.84c0.194-0.19 0.354-0.411 0.474-0.657 0.029-0.076 0.046-0.165 0.046-0.257s-0.017-0.181-0.048-0.262l0.002 0.005c-0.027-0.103-0.076-0.192-0.143-0.265l0 0c-0.066-0.073-0.149-0.129-0.243-0.163l-0.004-0.001c-0.106-0.038-0.229-0.060-0.356-0.060s-0.25 0.022-0.364 0.062l0.008-0.002c-0.189 0.051-0.365 0.144-0.514 0.273-0.148 0.128-0.268 0.284-0.351 0.462l-0.004 0.008 0.022 0.017zM26.865 30.063c0.044-0.075 0.070-0.165 0.070-0.262 0-0.058-0.009-0.113-0.027-0.165l0.001 0.004c-0.036-0.117-0.097-0.217-0.178-0.297l-0-0c-0.142-0.123-0.297-0.229-0.462-0.314-0.169 0.171-0.317 0.363-0.44 0.571-0.041 0.078-0.065 0.17-0.065 0.268 0 0.055 0.008 0.108 0.022 0.158l-0.001-0.004c0.037 0.133 0.126 0.24 0.243 0.302l0.003 0.001c0.141 0.055 0.297 0.055 0.439 0 0.156-0.044 0.285-0.139 0.372-0.266l0.001-0.002 0.022 0.006zM17.013 31.611l0.078-4h0.395l-0.061 3.2 1.581-2.663h0.195l1.482 2.709 0.055-3.183h0.395l-0.072 4h-0.34l-1.637-2.989-1.732 2.931-0.34-0.006zM15.075 27.429c0.255 0.249 0.437 0.566 0.527 0.915 0.040 0.149 0.062 0.319 0.062 0.495 0 0.202-0.030 0.398-0.086 0.582l0.004-0.014c-0.096 0.366-0.28 0.681-0.529 0.932l0-0c-0.239 0.242-0.543 0.418-0.884 0.5l-0.013 0.003c-0.143 0.035-0.307 0.054-0.475 0.054-0.216 0-0.424-0.032-0.62-0.093l0.015 0.004c-0.367-0.094-0.682-0.276-0.936-0.521l0.001 0.001c-0.245-0.241-0.426-0.547-0.515-0.889l-0.003-0.013c-0.038-0.152-0.060-0.326-0.060-0.505 0-0.205 0.029-0.404 0.082-0.591l-0.004 0.015c0.103-0.365 0.29-0.679 0.539-0.93l-0 0c0.235-0.241 0.533-0.42 0.867-0.511l0.013-0.003c0.142-0.034 0.305-0.054 0.473-0.054 0.215 0 0.422 0.032 0.616 0.092l-0.015-0.004c0.354 0.092 0.679 0.277 0.941 0.537zM13.176 27.229c-0.284 0.070-0.528 0.214-0.718 0.411l-0 0c-0.2 0.205-0.347 0.462-0.42 0.748l-0.002 0.012c-0.037 0.131-0.058 0.282-0.058 0.437s0.021 0.306 0.061 0.449l-0.003-0.012c0.065 0.278 0.206 0.531 0.406 0.731 0.21 0.21 0.469 0.362 0.752 0.44 0.283 0.074 0.58 0.074 0.863 0 0.285-0.074 0.53-0.217 0.724-0.411v0c0.199-0.206 0.346-0.462 0.42-0.748l0.003-0.012c0.037-0.132 0.058-0.284 0.058-0.44s-0.021-0.308-0.061-0.452l0.003 0.012c-0.075-0.287-0.218-0.534-0.412-0.732l0 0c-0.203-0.204-0.46-0.355-0.746-0.432l-0.012-0.003c-0.128-0.038-0.276-0.060-0.429-0.060s-0.3 0.022-0.44 0.062l0.011-0.003zM8.96 24.571l0.151 1.571c0.095 0.042 0.189 0.090 0.278 0.143l0.908 0.537 0.613-1.109 0.362 0.211-1.949 3.446-1.27-0.749c-0.377-0.199-0.67-0.517-0.831-0.902l-0.004-0.012c-0.043-0.123-0.068-0.264-0.068-0.412 0-0.249 0.071-0.482 0.194-0.68l-0.003 0.005c0.129-0.25 0.335-0.451 0.585-0.571 0.146-0.064 0.316-0.101 0.495-0.101 0.109 0 0.215 0.014 0.316 0.040l-0.009-0.002-0.162-1.68 0.395 0.263zM8.326 26.377c-0.138 0.036-0.259 0.097-0.363 0.179l0.002-0.002c-0.107 0.084-0.198 0.189-0.265 0.309-0.084 0.147-0.133 0.323-0.133 0.511 0 0.103 0.015 0.202 0.043 0.296l-0.002-0.007c0.13 0.296 0.357 0.536 0.64 0.68l0.897 0.531 0.974-1.714-0.897-0.531c-0.226-0.176-0.514-0.282-0.826-0.282-0.025 0-0.050 0.001-0.074 0.002l0.003-0v0.029zM5.663 21.891l0.251-0.257 1.921 2.029-2.785 2.789-1.854-1.966 0.256-0.257 1.576 1.663 0.953-0.989-1.381-1.474 0.267-0.263 1.409 1.486 1.036-1.034-1.649-1.726zM1.526 19.646l0.133-0.789 0.262 0.040-0.151 0.811 0.741-0.28 0.089 0.251-0.752 0.263 0.618 0.537-0.178 0.206-0.596-0.571-0.139 0.811-0.267-0.051 0.155-0.811-0.746 0.274-0.083-0.223 0.746-0.269-0.618-0.531 0.184-0.206 0.602 0.537z"></path>
</symbol>
</defs>
</svg>
